{"asset":{"version":"2.0","generator":"Blockbench 4.1.4 glTF exporter"},"scenes":[{"nodes":[26],"name":"blockbench_export"}],"scene":0,"nodes":[{"translation":[0.25,-0.6875,0],"name":"leg_right","mesh":0},{"translation":[-0.25,0.6875,0],"name":"leg_right","children":[0]},{"translation":[-0.25,-0.6875,0],"name":"leg_left","mesh":1},{"translation":[0.25,0.6875,0],"name":"leg_left","children":[2]},{"name":"waist","mesh":2},{"name":"torso","mesh":3},{"translation":[0,0.4375,-0.5625],"name":"gem","mesh":4},{"name":"cube","mesh":5},{"name":"head","mesh":6},{"translation":[3.8270212473354834e-18,-2.1875,0.3125],"name":"cube","mesh":7},{"translation":[3.8270212473354834e-18,-2.1875,0.3125],"name":"cube","mesh":8},{"translation":[3.8270212473354834e-18,-2.1875,0.3125],"name":"cube","mesh":9},{"translation":[3.8270212473354834e-18,-2.1875,0.3125],"name":"cube","mesh":10},{"rotation":[0,0.3826834323650898,0,0.9238795325112867],"translation":[0,0.3125,-0.25],"name":"crown","children":[9,10,11,12]},{"translation":[0,0.875,-0.0625],"name":"head","children":[8,13]},{"translation":[0.5,-1.375,0],"name":"shoulder_right","mesh":11},{"name":"arm_right","mesh":12},{"translation":[-0.25,-0.625,0],"name":"arm_right","children":[16]},{"translation":[-0.5,0.6875,0],"name":"shoulder_right","children":[15,17]},{"translation":[-0.5625,-1.3736913046750545,0.059976657627337],"name":"shoulder_left","mesh":13},{"name":"arm_left","mesh":14},{"translation":[0.25,-0.6236913046750545,0.059976657627337],"name":"arm_left","children":[20]},{"translation":[0.5625,0.6875,0],"name":"shoulder_left","children":[19,21]},{"translation":[0,0.6875,0],"name":"torso","children":[5,6,7,14,18,22]},{"translation":[0,0.3125,0],"name":"body","children":[4,23]},{"name":"golem","children":[1,3,24]},{"children":[25]}],"bufferViews":[{"buffer":0,"byteOffset":0,"byteLength":288,"target":34962,"byteStride":12},{"buffer":0,"byteOffset":288,"byteLength":288,"target":34962,"byteStride":12},{"buffer":0,"byteOffset":576,"byteLength":192,"target":34962,"byteStride":8},{"buffer":0,"byteOffset":768,"byteLength":72,"target":34963},{"buffer":0,"byteOffset":840,"byteLength":288,"target":34962,"byteStride":12},{"buffer":0,"byteOffset":1128,"byteLength":288,"target":34962,"byteStride":12},{"buffer":0,"byteOffset":1416,"byteLength":192,"target":34962,"byteStride":8},{"buffer":0,"byteOffset":1608,"byteLength":72,"target":34963},{"buffer":0,"byteOffset":1680,"byteLength":288,"target":34962,"byteStride":12},{"buffer":0,"byteOffset":1968,"byteLength":288,"target":34962,"byteStride":12},{"buffer":0,"byteOffset":2256,"byteLength":192,"target":34962,"byteStride":8},{"buffer":0,"byteOffset":2448,"byteLength":72,"target":34963},{"buffer":0,"byteOffset":2520,"byteLength":288,"target":34962,"byteStride":12},{"buffer":0,"byteOffset":2808,"byteLength":288,"target":34962,"byteStride":12},{"buffer":0,"byteOffset":3096,"byteLength":192,"target":34962,"byteStride":8},{"buffer":0,"byteOffset":3288,"byteLength":72,"target":34963},{"buffer":0,"byteOffset":3360,"byteLength":288,"target":34962,"byteStride":12},{"buffer":0,"byteOffset":3648,"byteLength":288,"target":34962,"byteStride":12},{"buffer":0,"byteOffset":3936,"byteLength":192,"target":34962,"byteStride":8},{"buffer":0,"byteOffset":4128,"byteLength":72,"target":34963},{"buffer":0,"byteOffset":4200,"byteLength":288,"target":34962,"byteStride":12},{"buffer":0,"byteOffset":4488,"byteLength":288,"target":34962,"byteStride":12},{"buffer":0,"byteOffset":4776,"byteLength":192,"target":34962,"byteStride":8},{"buffer":0,"byteOffset":4968,"byteLength":72,"target":34963},{"buffer":0,"byteOffset":5040,"byteLength":288,"target":34962,"byteStride":12},{"buffer":0,"byteOffset":5328,"byteLength":288,"target":34962,"byteStride":12},{"buffer":0,"byteOffset":5616,"byteLength":192,"target":34962,"byteStride":8},{"buffer":0,"byteOffset":5808,"byteLength":72,"target":34963},{"buffer":0,"byteOffset":5880,"byteLength":288,"target":34962,"byteStride":12},{"buffer":0,"byteOffset":6168,"byteLength":288,"target":34962,"byteStride":12},{"buffer":0,"byteOffset":6456,"byteLength":192,"target":34962,"byteStride":8},{"buffer":0,"byteOffset":6648,"byteLength":72,"target":34963},{"buffer":0,"byteOffset":6720,"byteLength":288,"target":34962,"byteStride":12},{"buffer":0,"byteOffset":7008,"byteLength":288,"target":34962,"byteStride":12},{"buffer":0,"byteOffset":7296,"byteLength":192,"target":34962,"byteStride":8},{"buffer":0,"byteOffset":7488,"byteLength":72,"target":34963},{"buffer":0,"byteOffset":7560,"byteLength":288,"target":34962,"byteStride":12},{"buffer":0,"byteOffset":7848,"byteLength":288,"target":34962,"byteStride":12},{"buffer":0,"byteOffset":8136,"byteLength":192,"target":34962,"byteStride":8},{"buffer":0,"byteOffset":8328,"byteLength":72,"target":34963},{"buffer":0,"byteOffset":8400,"byteLength":288,"target":34962,"byteStride":12},{"buffer":0,"byteOffset":8688,"byteLength":288,"target":34962,"byteStride":12},{"buffer":0,"byteOffset":8976,"byteLength":192,"target":34962,"byteStride":8},{"buffer":0,"byteOffset":9168,"byteLength":72,"target":34963},{"buffer":0,"byteOffset":9240,"byteLength":288,"target":34962,"byteStride":12},{"buffer":0,"byteOffset":9528,"byteLength":288,"target":34962,"byteStride":12},{"buffer":0,"byteOffset":9816,"byteLength":192,"target":34962,"byteStride":8},{"buffer":0,"byteOffset":10008,"byteLength":72,"target":34963},{"buffer":0,"byteOffset":10080,"byteLength":288,"target":34962,"byteStride":12},{"buffer":0,"byteOffset":10368,"byteLength":288,"target":34962,"byteStride":12},{"buffer":0,"byteOffset":10656,"byteLength":192,"target":34962,"byteStride":8},{"buffer":0,"byteOffset":10848,"byteLength":72,"target":34963},{"buffer":0,"byteOffset":10920,"byteLength":288,"target":34962,"byteStride":12},{"buffer":0,"byteOffset":11208,"byteLength":288,"target":34962,"byteStride":12},{"buffer":0,"byteOffset":11496,"byteLength":192,"target":34962,"byteStride":8},{"buffer":0,"byteOffset":11688,"byteLength":72,"target":34963},{"buffer":0,"byteOffset":11760,"byteLength":288,"target":34962,"byteStride":12},{"buffer":0,"byteOffset":12048,"byteLength":288,"target":34962,"byteStride":12},{"buffer":0,"byteOffset":12336,"byteLength":192,"target":34962,"byteStride":8},{"buffer":0,"byteOffset":12528,"byteLength":72,"target":34963},{"buffer":0,"byteOffset":12600,"byteLength":12},{"buffer":0,"byteOffset":12612,"byteLength":48},{"buffer":0,"byteOffset":12660,"byteLength":4},{"buffer":0,"byteOffset":12664,"byteLength":16},{"buffer":0,"byteOffset":12680,"byteLength":12},{"buffer":0,"byteOffset":12692,"byteLength":48},{"buffer":0,"byteOffset":12740,"byteLength":20},{"buffer":0,"byteOffset":12760,"byteLength":80},{"buffer":0,"byteOffset":12840,"byteLength":12},{"buffer":0,"byteOffset":12852,"byteLength":48},{"buffer":0,"byteOffset":12900,"byteLength":12},{"buffer":0,"byteOffset":12912,"byteLength":48},{"buffer":0,"byteOffset":12960,"byteLength":12},{"buffer":0,"byteOffset":12972,"byteLength":48},{"buffer":0,"byteOffset":13020,"byteLength":64},{"buffer":0,"byteOffset":13084,"byteLength":256},{"buffer":0,"byteOffset":13340,"byteLength":4},{"buffer":0,"byteOffset":13344,"byteLength":12},{"buffer":0,"byteOffset":13356,"byteLength":12},{"buffer":0,"byteOffset":13368,"byteLength":48},{"buffer":0,"byteOffset":13416,"byteLength":12},{"buffer":0,"byteOffset":13428,"byteLength":48}],"buffers":[{"byteLength":13476,"uri":"data:application/octet-stream;base64,"}],"accessors":[{"bufferView":0,"componentType":5126,"count":24,"max":[-0.0625,0.6875,0.1875],"min":[-0.4375,0,-0.1875],"type":"VEC3"},{"bufferView":1,"componentType":5126,"count":24,"max":[1,1,1],"min":[-1,-1,-1],"type":"VEC3"},{"bufferView":2,"componentType":5126,"count":24,"max":[0.53125,1],"min":[0,0.46875],"type":"VEC2"},{"bufferView":3,"componentType":5123,"count":36,"max":[23],"min":[0],"type":"SCALAR"},{"bufferView":4,"componentType":5126,"count":24,"max":[0.4375,0.6875,0.1875],"min":[0.0625,0,-0.1875],"type":"VEC3"},{"bufferView":5,"componentType":5126,"count":24,"max":[1,1,1],"min":[-1,-1,-1],"type":"VEC3"},{"bufferView":6,"componentType":5126,"count":24,"max":[0.53125,1],"min":[0.375,0.5390625],"type":"VEC2"},{"bufferView":7,"componentType":5123,"count":36,"max":[23],"min":[0],"type":"SCALAR"},{"bufferView":8,"componentType":5126,"count":24,"max":[0.3125,0.6875,0.125],"min":[-0.3125,0.375,-0.125],"type":"VEC3"},{"bufferView":9,"componentType":5126,"count":24,"max":[1,1,1],"min":[-1,-1,-1],"type":"VEC3"},{"bufferView":10,"componentType":5126,"count":24,"max":[0.5625,0.8984375],"min":[0.25,0.6484375],"type":"VEC2"},{"bufferView":11,"componentType":5123,"count":36,"max":[23],"min":[0],"type":"SCALAR"},{"bufferView":12,"componentType":5126,"count":24,"max":[0.5,0.875,0.3125],"min":[-0.5,0,-0.3125],"type":"VEC3"},{"bufferView":13,"componentType":5126,"count":24,"max":[1,1,1],"min":[-1,-1,-1],"type":"VEC3"},{"bufferView":14,"componentType":5126,"count":24,"max":[0.28125,1],"min":[0,0.734375],"type":"VEC2"},{"bufferView":15,"componentType":5123,"count":36,"max":[23],"min":[0],"type":"SCALAR"},{"bufferView":16,"componentType":5126,"count":24,"max":[0.125,0,0.3125],"min":[-0.125,-0.125,0.1875],"type":"VEC3"},{"bufferView":17,"componentType":5126,"count":24,"max":[1,1,1],"min":[-1,-1,-1],"type":"VEC3"},{"bufferView":18,"componentType":5126,"count":24,"max":[0.375,1],"min":[0,0.625],"type":"VEC2"},{"bufferView":19,"componentType":5123,"count":36,"max":[23],"min":[0],"type":"SCALAR"},{"bufferView":20,"componentType":5126,"count":24,"max":[0.5062500238418579,0.8812500238418579,0.3187499940395355],"min":[-0.5062500238418579,0,-0.3187499940395355],"type":"VEC3"},{"bufferView":21,"componentType":5126,"count":24,"max":[1,1,1],"min":[-1,-1,-1],"type":"VEC3"},{"bufferView":22,"componentType":5126,"count":24,"max":[0.5625,1],"min":[0,0.296875],"type":"VEC2"},{"bufferView":23,"componentType":5123,"count":36,"max":[23],"min":[0],"type":"SCALAR"},{"bufferView":24,"componentType":5126,"count":24,"max":[0.25,0.125,0],"min":[-0.25,-0.375,-0.5],"type":"VEC3"},{"bufferView":25,"componentType":5126,"count":24,"max":[1,1,1],"min":[-1,-1,-1],"type":"VEC3"},{"bufferView":26,"componentType":5126,"count":24,"max":[0.484375,0.640625],"min":[0.046875,0.515625],"type":"VEC2"},{"bufferView":27,"componentType":5123,"count":36,"max":[23],"min":[0],"type":"SCALAR"},{"bufferView":28,"componentType":5126,"count":24,"max":[0.1875,2.1875,-0.4375],"min":[-0.1875,2.125,-0.5],"type":"VEC3"},{"bufferView":29,"componentType":5126,"count":24,"max":[1,1,1],"min":[-1,-1,-1],"type":"VEC3"},{"bufferView":30,"componentType":5126,"count":24,"max":[0.4375,1],"min":[0,0.4375],"type":"VEC2"},{"bufferView":31,"componentType":5123,"count":36,"max":[23],"min":[0],"type":"SCALAR"},{"bufferView":32,"componentType":5126,"count":24,"max":[-0.125,2.1875,-0.1875],"min":[-0.1875,2.125,-0.4375],"type":"VEC3"},{"bufferView":33,"componentType":5126,"count":24,"max":[1,1,1],"min":[-1,-1,-1],"type":"VEC3"},{"bufferView":34,"componentType":5126,"count":24,"max":[0.625,0.9375],"min":[0,0.3125],"type":"VEC2"},{"bufferView":35,"componentType":5123,"count":36,"max":[23],"min":[0],"type":"SCALAR"},{"bufferView":36,"componentType":5126,"count":24,"max":[0.1875,2.1875,-0.125],"min":[-0.1875,2.125,-0.1875],"type":"VEC3"},{"bufferView":37,"componentType":5126,"count":24,"max":[1,1,1],"min":[-1,-1,-1],"type":"VEC3"},{"bufferView":38,"componentType":5126,"count":24,"max":[0.75,1],"min":[0,0.4375],"type":"VEC2"},{"bufferView":39,"componentType":5123,"count":36,"max":[23],"min":[0],"type":"SCALAR"},{"bufferView":40,"componentType":5126,"count":24,"max":[0.1875,2.1875,-0.1875],"min":[0.125,2.125,-0.4375],"type":"VEC3"},{"bufferView":41,"componentType":5126,"count":24,"max":[1,1,1],"min":[-1,-1,-1],"type":"VEC3"},{"bufferView":42,"componentType":5126,"count":24,"max":[0.6875,0.8125],"min":[0.0625,0.3125],"type":"VEC2"},{"bufferView":43,"componentType":5123,"count":36,"max":[23],"min":[0],"type":"SCALAR"},{"bufferView":44,"componentType":5126,"count":24,"max":[-0.5,1.5625,0.25],"min":[-1,0.75,-0.25],"type":"VEC3"},{"bufferView":45,"componentType":5126,"count":24,"max":[1,1,1],"min":[-1,-1,-1],"type":"VEC3"},{"bufferView":46,"componentType":5126,"count":24,"max":[0.53125,1],"min":[0.109375,0.46875],"type":"VEC2"},{"bufferView":47,"componentType":5123,"count":36,"max":[23],"min":[0],"type":"SCALAR"},{"bufferView":48,"componentType":5126,"count":24,"max":[0.25,0,0.25],"min":[-0.25,-0.8125,-0.25],"type":"VEC3"},{"bufferView":49,"componentType":5126,"count":24,"max":[1,1,1],"min":[-1,-1,-1],"type":"VEC3"},{"bufferView":50,"componentType":5126,"count":24,"max":[0.515625,1],"min":[0,0.4765625],"type":"VEC2"},{"bufferView":51,"componentType":5123,"count":36,"max":[23],"min":[0],"type":"SCALAR"},{"bufferView":52,"componentType":5126,"count":24,"max":[1,1.5625,0.19002334773540497],"min":[0.5,0.75,-0.3099766671657562],"type":"VEC3"},{"bufferView":53,"componentType":5126,"count":24,"max":[1,1,1],"min":[-1,-1,-1],"type":"VEC3"},{"bufferView":54,"componentType":5126,"count":24,"max":[0.546875,0.8984375],"min":[0.046875,0.453125],"type":"VEC2"},{"bufferView":55,"componentType":5123,"count":36,"max":[23],"min":[0],"type":"SCALAR"},{"bufferView":56,"componentType":5126,"count":24,"max":[0.1875,0,0.19002334773540497],"min":[-0.3125,-0.8125,-0.3099766671657562],"type":"VEC3"},{"bufferView":57,"componentType":5126,"count":24,"max":[1,1,1],"min":[-1,-1,-1],"type":"VEC3"},{"bufferView":58,"componentType":5126,"count":24,"max":[0.375,0.796875],"min":[0,0.46875],"type":"VEC2"},{"bufferView":59,"componentType":5123,"count":36,"max":[23],"min":[0],"type":"SCALAR"},{"bufferView":60,"componentType":5126,"count":3,"max":[1],"min":[0],"type":"SCALAR"},{"bufferView":61,"componentType":5126,"count":3,"max":[0.06538756191730499,0.0014267617370933294,0.021768176928162575,-0.997621476650238],"min":[0.06538756191730499,-0.0014267617370933294,-0.021768176928162575,-0.997621476650238],"type":"VEC4"},{"bufferView":62,"componentType":5126,"count":1,"max":[0],"min":[0],"type":"SCALAR"},{"bufferView":63,"componentType":5126,"count":1,"max":[-0.08715574443340302,0,0,0.9961947202682495],"min":[-0.08715574443340302,0,0,0.9961947202682495],"type":"VEC4"},{"bufferView":64,"componentType":5126,"count":3,"max":[1],"min":[0],"type":"SCALAR"},{"bufferView":65,"componentType":5126,"count":3,"max":[0.021809693425893784,0.021809693425893784,0.0004758892173413187,0.9995241165161133],"min":[0.021794121712446213,-0.04360900819301605,-0.0009515519486740232,0.9988104701042175],"type":"VEC4"},{"bufferView":66,"componentType":5126,"count":5,"max":[0.5],"min":[0],"type":"SCALAR"},{"bufferView":67,"componentType":5126,"count":5,"max":[0.7000089287757874,0.6755902171134949,0,0.8968727588653564],"min":[0,-0.9883615374565125,-0.7000089287757874,-0.5187732577323914],"type":"VEC4"},{"bufferView":68,"componentType":5126,"count":3,"max":[1],"min":[0],"type":"SCALAR"},{"bufferView":69,"componentType":5126,"count":3,"max":[0.06607605516910553,0.022748861461877823,-0.04311865568161011,0.9985893964767456],"min":[-0.021036796271800995,0.01890425756573677,-0.04493727162480354,0.9966229200363159],"type":"VEC4"},{"bufferView":70,"componentType":5126,"count":3,"max":[1],"min":[0],"type":"SCALAR"},{"bufferView":71,"componentType":5126,"count":3,"max":[0.021967168897390366,0.00143980432767421,0.06538727879524231,0.9976171255111694],"min":[-0.06506448239088058,-0.004264551214873791,0.06526394933462143,0.9957354068756104],"type":"VEC4"},{"bufferView":72,"componentType":5126,"count":3,"max":[0.9583333134651184],"min":[0],"type":"SCALAR"},{"bufferView":73,"componentType":5126,"count":3,"max":[0.19509366154670715,-0.4727663993835449,-0.20534126460552216,0.834425151348114],"min":[0.16375555098056793,-0.48451390862464905,-0.25947561860084534,0.8192086219787598],"type":"VEC4"},{"bufferView":74,"componentType":5126,"count":16,"max":[0.9583333134651184],"min":[0],"type":"SCALAR"},{"bufferView":75,"componentType":5126,"count":16,"max":[0.25126075744628906,-0.2575390040874481,-0.005544785875827074,0.9471945762634277],"min":[0.18971747159957886,-0.2584550082683563,-0.022436680272221565,0.9327584505081177],"type":"VEC4"},{"bufferView":76,"componentType":5126,"count":1,"max":[0],"min":[0],"type":"SCALAR"},{"bufferView":77,"componentType":5126,"count":1,"max":[-0.3125,-0.625,0],"min":[-0.3125,-0.625,0],"type":"VEC3"},{"bufferView":78,"componentType":5126,"count":3,"max":[1],"min":[0],"type":"SCALAR"},{"bufferView":79,"componentType":5126,"count":3,"max":[0.08715574443340302,0,0,0.9961947202682495],"min":[-0.15212339162826538,0,0,0.9883615374565125],"type":"VEC4"},{"bufferView":80,"componentType":5126,"count":3,"max":[1],"min":[0],"type":"SCALAR"},{"bufferView":81,"componentType":5126,"count":3,"max":[0.13052618503570557,0,0,0.9940563440322876],"min":[-0.10886687785387039,0,0,0.9914448857307434],"type":"VEC4"}],"materials":[{"pbrMetallicRoughness":{"metallicFactor":0,"roughnessFactor":1,"baseColorTexture":{"index":0}},"alphaMode":"MASK","alphaCutoff":0.05,"doubleSided":true},{"pbrMetallicRoughness":{"metallicFactor":0,"roughnessFactor":1,"baseColorTexture":{"index":1}},"alphaMode":"MASK","alphaCutoff":0.05,"doubleSided":true},{"pbrMetallicRoughness":{"metallicFactor":0,"roughnessFactor":1,"baseColorTexture":{"index":2}},"alphaMode":"MASK","alphaCutoff":0.05,"doubleSided":true},{"pbrMetallicRoughness":{"metallicFactor":0,"roughnessFactor":1,"baseColorTexture":{"index":3}},"alphaMode":"MASK","alphaCutoff":0.05,"doubleSided":true}],"textures":[{"sampler":0,"source":0,"name":"texture.png"},{"sampler":1,"source":1,"name":"gem.png"},{"sampler":2,"source":2,"name":"top_torso.png"},{"sampler":3,"source":3,"name":"crown.png"}],"samplers":[{"magFilter":9728,"minFilter":9728,"wrapS":33071,"wrapT":33071},{"magFilter":9728,"minFilter":9728,"wrapS":33071,"wrapT":33071},{"magFilter":9728,"minFilter":9728,"wrapS":33071,"wrapT":33071},{"magFilter":9728,"minFilter":9728,"wrapS":33071,"wrapT":33071}],"images":[{"mimeType":"image/png","uri":"data:image/png;base64,"},{"mimeType":"image/png","uri":"data:image/png;base64,"},{"mimeType":"image/png","uri":"data:image/png;base64,"},{"mimeType":"image/png","uri":"data:image/png;base64,"}],"meshes":[{"primitives":[{"mode":4,"attributes":{"POSITION":0,"NORMAL":1,"TEXCOORD_0":2},"indices":3,"material":0}]},{"primitives":[{"mode":4,"attributes":{"POSITION":4,"NORMAL":5,"TEXCOORD_0":6},"indices":7,"material":0}]},{"primitives":[{"mode":4,"attributes":{"POSITION":8,"NORMAL":9,"TEXCOORD_0":10},"indices":11,"material":0}]},{"primitives":[{"mode":4,"attributes":{"POSITION":12,"NORMAL":13,"TEXCOORD_0":14},"indices":15,"material":0}]},{"primitives":[{"mode":4,"attributes":{"POSITION":16,"NORMAL":17,"TEXCOORD_0":18},"indices":19,"material":1}]},{"primitives":[{"mode":4,"attributes":{"POSITION":20,"NORMAL":21,"TEXCOORD_0":22},"indices":23,"material":2}]},{"primitives":[{"mode":4,"attributes":{"POSITION":24,"NORMAL":25,"TEXCOORD_0":26},"indices":27,"material":0}]},{"primitives":[{"mode":4,"attributes":{"POSITION":28,"NORMAL":29,"TEXCOORD_0":30},"indices":31,"material":3}]},{"primitives":[{"mode":4,"attributes":{"POSITION":32,"NORMAL":33,"TEXCOORD_0":34},"indices":35,"material":3}]},{"primitives":[{"mode":4,"attributes":{"POSITION":36,"NORMAL":37,"TEXCOORD_0":38},"indices":39,"material":3}]},{"primitives":[{"mode":4,"attributes":{"POSITION":40,"NORMAL":41,"TEXCOORD_0":42},"indices":43,"material":3}]},{"primitives":[{"mode":4,"attributes":{"POSITION":44,"NORMAL":45,"TEXCOORD_0":46},"indices":47,"material":0}]},{"primitives":[{"mode":4,"attributes":{"POSITION":48,"NORMAL":49,"TEXCOORD_0":50},"indices":51,"material":0}]},{"primitives":[{"mode":4,"attributes":{"POSITION":52,"NORMAL":53,"TEXCOORD_0":54},"indices":55,"material":0}]},{"primitives":[{"mode":4,"attributes":{"POSITION":56,"NORMAL":57,"TEXCOORD_0":58},"indices":59,"material":0}]}],"animations":[{"name":"animation.model.new","samplers":[{"input":60,"output":61,"interpolation":"LINEAR"},{"input":62,"output":63,"interpolation":"LINEAR"},{"input":64,"output":65,"interpolation":"LINEAR"},{"input":66,"output":67,"interpolation":"LINEAR"},{"input":68,"output":69,"interpolation":"LINEAR"},{"input":70,"output":71,"interpolation":"LINEAR"},{"input":72,"output":73,"interpolation":"LINEAR"},{"input":74,"output":75,"interpolation":"LINEAR"},{"input":76,"output":77,"interpolation":"LINEAR"},{"input":78,"output":79,"interpolation":"LINEAR"},{"input":80,"output":81,"interpolation":"LINEAR"}],"channels":[{"sampler":0,"target":{"node":24,"path":"rotation"}},{"sampler":1,"target":{"node":23,"path":"rotation"}},{"sampler":2,"target":{"node":14,"path":"rotation"}},{"sampler":3,"target":{"node":13,"path":"rotation"}},{"sampler":4,"target":{"node":18,"path":"rotation"}},{"sampler":5,"target":{"node":22,"path":"rotation"}},{"sampler":6,"target":{"node":21,"path":"rotation"}},{"sampler":7,"target":{"node":17,"path":"rotation"}},{"sampler":8,"target":{"node":17,"path":"translation"}},{"sampler":9,"target":{"node":1,"path":"rotation"}},{"sampler":10,"target":{"node":3,"path":"rotation"}}]}]}